<svg width="64" height="64" xmlns="http://www.w3.org/2000/svg">

 <g>
  <title>background</title>
  <rect fill="none" id="canvas_background" height="402" width="582" y="-1" x="-1"/>
 </g>
 <g>
  <title>Layer 1</title>
  <circle id="svg_2" r="32" fill="#7A918B" cy="32" cx="32"/>
  <path transform="rotate(-90 32.00000000000001,33) " opacity="0.2" id="svg_4" fill="#000000" d="m47.839221,29l-7.839,0l0,-12c0,-2.209 -1.791,-4 -4,-4l-8,0c-2.209,0 -4,1.791 -4,4l0,12l-7.839,0c-2.722,0 -3.483,1.865 -1.69,4.145l14.27,18.145c1.793,2.28 4.726,2.28 6.519,0l14.269,-18.146c1.792,-2.279 1.032,-4.144 -1.69,-4.144z"/>
  <path transform="rotate(-90 27.92592811584473,32) " id="svg_6" fill="#FFFFFF" d="m19.925926,20c0,-2.209 1.791,-4 4,-4l8,0c2.209,0 4,1.791 4,4l0,24c0,2.209 -1.791,4 -4,4l-8,0c-2.209,0 -4,-1.791 -4,-4l0,-24z"/>
  <path transform="rotate(-90 39.96318435668946,31.999999999999996) " id="svg_8" fill="#FFFFFF" d="m55.801963,20c2.722,0 3.483,1.865 1.69,4.145l-14.27,18.145c-1.793,2.28 -4.726,2.28 -6.519,0l-14.269,-18.145c-1.792,-2.28 -1.032,-4.145 1.69,-4.145l31.678,0z"/>
 </g>
</svg>