<?xml version="1.0" encoding="UTF-8" standalone="no"?>
<svg
   xmlns:dc="http://purl.org/dc/elements/1.1/"
   xmlns:cc="http://creativecommons.org/ns#"
   xmlns:rdf="http://www.w3.org/1999/02/22-rdf-syntax-ns#"
   xmlns:svg="http://www.w3.org/2000/svg"
   xmlns="http://www.w3.org/2000/svg"
   xmlns:sodipodi="http://sodipodi.sourceforge.net/DTD/sodipodi-0.dtd"
   xmlns:inkscape="http://www.inkscape.org/namespaces/inkscape"
   width="64"
   height="64"
   version="1.1"
   id="svg15"
   sodipodi:docname="pause_icon.svg"
   inkscape:version="0.92.4 (5da689c313, 2019-01-14)">
  <metadata
     id="metadata21">
    <rdf:RDF>
      <cc:Work
         rdf:about="">
        <dc:format>image/svg+xml</dc:format>
        <dc:type
           rdf:resource="http://purl.org/dc/dcmitype/StillImage" />
      </cc:Work>
    </rdf:RDF>
  </metadata>
  <defs
     id="defs19" />
  <sodipodi:namedview
     pagecolor="#ffffff"
     bordercolor="#666666"
     borderopacity="1"
     objecttolerance="10"
     gridtolerance="10"
     guidetolerance="10"
     inkscape:pageopacity="0"
     inkscape:pageshadow="2"
     inkscape:window-width="1920"
     inkscape:window-height="1017"
     id="namedview17"
     showgrid="false"
     inkscape:zoom="10.429825"
     inkscape:cx="5.7504294"
     inkscape:cy="34.464544"
     inkscape:window-x="-8"
     inkscape:window-y="-8"
     inkscape:window-maximized="1"
     inkscape:current-layer="g13" />
  <g
     id="g5">
    <title
       id="title2">background</title>
    <rect
       fill="none"
       id="canvas_background"
       height="402"
       width="582"
       y="-1"
       x="-1" />
  </g>
  <g
     id="g13">
    <title
       id="title7">Layer 1</title>
    <circle
       id="svg_2"
       r="32"
       fill="#7A918B"
       cy="32"
       cx="32" />
    <path
       id="svg_6"
       d="m 19.397813,18.130361 c 0,-2.553169 1.168518,-4.623212 2.609756,-4.623212 h 5.219511 c 1.441239,0 2.609757,2.070043 2.609757,4.623212 v 27.739277 c 0,2.553169 -1.168518,4.623213 -2.609757,4.623213 h -5.219511 c -1.441238,0 -2.609756,-2.070044 -2.609756,-4.623213 z"
       inkscape:connector-curvature="0"
       style="fill:#ffffff;stroke-width:0.86838424" />
    <path
       id="svg_6-3"
       d="m 34.282589,18.130361 c 0,-2.553169 1.168518,-4.623212 2.609756,-4.623212 h 5.219511 c 1.441239,0 2.609757,2.070043 2.609757,4.623212 v 27.739277 c 0,2.553169 -1.168518,4.623213 -2.609757,4.623213 h -5.219511 c -1.441238,0 -2.609756,-2.070044 -2.609756,-4.623213 z"
       inkscape:connector-curvature="0"
       style="fill:#ffffff;stroke-width:0.86838424" />
  </g>
</svg>
