<svg width="64" height="64" xmlns="http://www.w3.org/2000/svg">

 <g>
  <title>background</title>
  <rect fill="none" id="canvas_background" height="402" width="582" y="-1" x="-1"/>
 </g>
 <g>
  <title>Layer 1</title>
  <circle id="svg_2" r="32" fill="#7A918B" cy="32" cx="32"/>
  <path opacity="0.2" id="svg_5" fill="#000000" d="m27.5,34c0,2.485 2.015,4.5 4.5,4.5s4.5,-2.015 4.5,-4.5s-2.015,-4.5 -4.5,-4.5s-4.5,2.015 -4.5,4.5z"/>
  <path opacity="0.2" id="svg_7" fill="#000000" d="m53.947,32.573c-0.048,-0.548 -0.511,-1.147 -1.029,-1.331l-4.127,-1.469c-0.518,-0.184 -1.09,-0.76 -1.27,-1.28l-0.653,-1.58c-0.238,-0.496 -0.24,-1.308 -0.004,-1.805l1.875,-3.944c0.236,-0.497 0.129,-1.238 -0.238,-1.648l-2.017,-2.017c-0.41,-0.367 -1.151,-0.474 -1.648,-0.238l-3.944,1.875c-0.497,0.236 -1.309,0.234 -1.805,-0.004l-1.581,-0.652c-0.519,-0.181 -1.095,-0.753 -1.28,-1.271l-1.469,-4.127c-0.184,-0.518 -0.784,-0.981 -1.331,-1.029c0,0 -0.607,-0.053 -1.427,-0.053s-1.427,0.053 -1.427,0.053c-0.548,0.048 -1.147,0.511 -1.331,1.029l-1.469,4.127c-0.184,0.518 -0.76,1.09 -1.28,1.271l-1.578,0.652c-0.496,0.238 -1.308,0.24 -1.805,0.004l-3.947,-1.875c-0.497,-0.236 -1.238,-0.129 -1.648,0.238l-2.017,2.017c-0.367,0.41 -0.474,1.151 -0.238,1.648l1.875,3.944c0.236,0.497 0.235,1.309 -0.004,1.805l-0.652,1.581c-0.181,0.519 -0.753,1.095 -1.271,1.28l-4.127,1.469c-0.518,0.184 -0.981,0.784 -1.029,1.331c0,0 -0.053,0.607 -0.053,1.427c0,0.819 0.053,1.427 0.053,1.427c0.048,0.548 0.511,1.147 1.029,1.331l4.13,1.469c0.518,0.184 1.09,0.76 1.27,1.28l0.653,1.58c0.238,0.496 0.24,1.308 0.004,1.805l-1.875,3.944c-0.236,0.497 -0.129,1.238 0.238,1.648l2.018,2.017c0.41,0.367 1.151,0.474 1.648,0.238l3.944,-1.875c0.497,-0.236 1.309,-0.235 1.805,0.004l1.581,0.652c0.519,0.181 1.095,0.753 1.28,1.271l1.469,4.13c0.184,0.518 0.784,0.981 1.332,1.028c0,0 0.604,0.052 1.424,0.052s1.427,-0.053 1.427,-0.053c0.548,-0.048 1.147,-0.511 1.331,-1.029l1.469,-4.13c0.184,-0.518 0.76,-1.09 1.28,-1.27l1.58,-0.652c0.496,-0.238 1.308,-0.24 1.805,-0.004l3.944,1.875c0.497,0.236 1.238,0.129 1.648,-0.238l2.017,-2.018c0.367,-0.41 0.474,-1.151 0.238,-1.648l-1.875,-3.944c-0.236,-0.497 -0.235,-1.309 0.004,-1.805l0.652,-1.581c0.181,-0.519 0.753,-1.095 1.271,-1.28l4.13,-1.469c0.518,-0.184 0.981,-0.784 1.028,-1.331c0,0 0.052,-0.604 0.052,-1.424c-0.002,-0.821 -0.055,-1.428 -0.055,-1.428zm-21.947,11.427c-5.523,0 -10,-4.478 -10,-10c0,-5.523 4.477,-10 10,-10s10,4.477 10,10c0,5.522 -4.477,10 -10,10z"/>
  <path id="svg_10" fill="#4F5D73" d="m27.5,32c0,2.485 2.015,4.5 4.5,4.5s4.5,-2.015 4.5,-4.5s-2.015,-4.5 -4.5,-4.5s-4.5,2.015 -4.5,4.5z"/>
  <path id="svg_12" fill="#FFFFFF" d="m53.947,30.573c-0.048,-0.548 -0.511,-1.147 -1.029,-1.331l-4.127,-1.469c-0.518,-0.184 -1.09,-0.76 -1.27,-1.28l-0.653,-1.58c-0.238,-0.496 -0.24,-1.308 -0.004,-1.805l1.875,-3.944c0.236,-0.497 0.129,-1.238 -0.238,-1.648l-2.017,-2.017c-0.41,-0.367 -1.151,-0.474 -1.648,-0.238l-3.944,1.875c-0.497,0.236 -1.309,0.234 -1.805,-0.004l-1.581,-0.652c-0.519,-0.181 -1.095,-0.753 -1.28,-1.271l-1.469,-4.127c-0.184,-0.518 -0.784,-0.981 -1.331,-1.029c0,0 -0.607,-0.053 -1.427,-0.053s-1.427,0.053 -1.427,0.053c-0.548,0.048 -1.147,0.511 -1.331,1.029l-1.469,4.127c-0.184,0.518 -0.76,1.09 -1.28,1.271l-1.578,0.652c-0.496,0.238 -1.308,0.24 -1.805,0.004l-3.947,-1.875c-0.497,-0.236 -1.238,-0.129 -1.648,0.238l-2.017,2.017c-0.367,0.41 -0.474,1.151 -0.238,1.648l1.875,3.944c0.236,0.497 0.235,1.309 -0.004,1.805l-0.652,1.581c-0.181,0.519 -0.753,1.095 -1.271,1.28l-4.127,1.469c-0.518,0.184 -0.981,0.784 -1.029,1.331c0,0 -0.053,0.607 -0.053,1.427c0,0.819 0.053,1.427 0.053,1.427c0.048,0.548 0.511,1.147 1.029,1.331l4.13,1.469c0.518,0.184 1.09,0.76 1.27,1.28l0.653,1.58c0.238,0.496 0.24,1.308 0.004,1.805l-1.875,3.944c-0.236,0.497 -0.129,1.238 0.238,1.648l2.018,2.017c0.41,0.367 1.151,0.474 1.648,0.238l3.944,-1.875c0.497,-0.236 1.309,-0.235 1.805,0.004l1.581,0.652c0.519,0.181 1.095,0.753 1.28,1.271l1.469,4.13c0.184,0.518 0.784,0.981 1.332,1.028c0,0 0.604,0.052 1.424,0.052s1.427,-0.053 1.427,-0.053c0.548,-0.048 1.147,-0.511 1.331,-1.029l1.469,-4.13c0.184,-0.518 0.76,-1.09 1.28,-1.27l1.58,-0.652c0.496,-0.238 1.308,-0.24 1.805,-0.004l3.944,1.875c0.497,0.236 1.238,0.129 1.648,-0.238l2.017,-2.018c0.367,-0.41 0.474,-1.151 0.238,-1.648l-1.875,-3.944c-0.236,-0.497 -0.235,-1.309 0.004,-1.805l0.652,-1.581c0.181,-0.519 0.753,-1.095 1.271,-1.28l4.13,-1.469c0.518,-0.184 0.981,-0.784 1.028,-1.331c0,0 0.052,-0.604 0.052,-1.424c-0.002,-0.821 -0.055,-1.428 -0.055,-1.428zm-21.947,11.427c-5.523,0 -10,-4.478 -10,-10c0,-5.523 4.477,-10 10,-10s10,4.477 10,10c0,5.522 -4.477,10 -10,10z"/>
 </g>
</svg>